{"title":"Delphina - Creampie Angels - Gorgeous Teen Enjoys Nasty Sex And","uid":9847426,"size":227243960,"categoryP":"porn","categoryS":"movie_clips","magnet":"?xt=urn:btih:92add09cfce2e63c971e76dacd40a3ed0f0af83f&amp;dn=Delphina+-+Creampie+Angels+-+Gorgeous+Teen+Enjoys+Nasty+Sex+And+&amp;tr=udp%3A%2F%2Ftracker.openbittorrent.com%3A80&amp;tr=udp%3A%2F%2Fopen.demonii.com%3A1337&amp;tr=udp%3A%2F%2Ftracker.coppersurfer.tk%3A6969&amp;tr=udp%3A%2F%2Fexodus.desync.com%3A6969","seeders":1,"leechers":1,"uploader":"athklym","files":-1,"time":1396101716,"description":" &lt;a href=&quot;http://bayimg.com/EanodaaFB&quot; rel=&quot;nofollow&quot; target=&quot;_NEW&quot;&gt;http://bayimg.com/EanodaaFB&lt;/a&gt;\n\nWhile her parents are away, she won't waste her time, because when such a horny guy is near you, it's not appropriate for her to do something different from sucking his cock. After this breathtaking blowjob this hottie will let his huge dick inside her little pussy. She enjoys it!\n\nDelphina_Creampie_Angels_Gorgeous_Teen_Enjoys_Nasty_Sex_And_Gets_Her_Cunt_Creampied.avi\nFormat : AVI\nFormat/Info : Audio Video Interleave\nFile size : 217 MiB\nDuration : 23mn 13s\nOverall bit rate mode : Variable\nOverall bit rate : 1 305 Kbps\nWriting library : VirtualDub build 35491/release\n\nVideo\nID : 0\nFormat : MPEG-4 Visual\nFormat profile : Advanced Simple@L5\nFormat settings, BVOP : 2\nFormat settings, QPel : No\nFormat settings, GMC : No warppoints\nFormat settings, Matrix : Default (H.263)\nMuxing mode : Packed bitstream\nCodec ID : XVID\nCodec ID/Hint : XviD\nDuration : 23mn 13s\nBit rate : 1 187 Kbps\nWidth : 960 pixels\nHeight : 540 pixels\nDisplay aspect ratio : 16:9\nFrame rate : 25.000 fps\nColor space : YUV\nChroma subsampling : 4:2:0\nBit depth : 8 bits\nScan type : Progressive\nCompression mode : Lossy\nBits/(Pixel*Frame) : 0.092\nStream size : 197 MiB (91%)\nWriting library : XviD 64\n\nAudio\nID : 1\nFormat : MPEG Audio\nFormat version : Version 1\nFormat profile : Layer 3\nMode : Joint stereo\nMode extension : MS Stereo\nCodec ID : 55\nCodec ID/Hint : MP3\nDuration : 23mn 13s\nBit rate mode : Variable\nBit rate : 108 Kbps\nChannel count : 2 channels\nSampling rate : 44.1 KHz\nCompression mode : Lossy\nStream size : 18.0 MiB (8%)\nAlignment : Split accross interleaves\nInterleave, duration : 40 ms (1.00 video frame)\nInterleave, preload duration : 592 ms","torrent":{"xt":"urn:btih:92add09cfce2e63c971e76dacd40a3ed0f0af83f","amp;dn":"Delphina+-+Creampie+Angels+-+Gorgeous+Teen+Enjoys+Nasty+Sex+And+","amp;tr":["udp%3A%2F%2Ftracker.openbittorrent.com%3A80","udp%3A%2F%2Fopen.demonii.com%3A1337","udp%3A%2F%2Ftracker.coppersurfer.tk%3A6969","udp%3A%2F%2Fexodus.desync.com%3A6969"],"infoHash":"92add09cfce2e63c971e76dacd40a3ed0f0af83f","infoHashBuffer":{"type":"Buffer","data":[146,173,208,156,252,226,230,60,151,30,118,218,205,64,163,237,15,10,248,63]},"announce":[],"urlList":[]}}